<?xml version="1.0" encoding="UTF-8"?><svg xmlns="http://www.w3.org/2000/svg" viewBox="0 0 1080 1080"><defs><style>.cls-1{fill:#00dec9;stroke:#00dec9;stroke-miterlimit:10;stroke-width:.64px;}.cls-2{fill:#fff;}</style></defs><g id="Fondo"><rect class="cls-2" x="0" y="0" width="1080" height="1080"/></g><g id="Logo"><path class="cls-1" d="M732.78,589.6h-96.52v-27.77h96.52c5.56,0,10.09-4.53,10.09-10.09v-91.8c0-5.56-4.53-10.09-10.09-10.09h-130.85v-130.6c0-5.57-4.53-10.09-10.09-10.09h-104.37c-5.56,0-10.09,4.53-10.09,10.09v130.6h-130.18c-5.56,0-10.09,4.53-10.09,10.09v91.8c0,5.57,4.53,10.09,10.09,10.09h102.01v27.77h-102.01c-20.88,0-37.86-16.99-37.86-37.86v-91.8c0-20.88,16.98-37.86,37.86-37.86h102.4v-102.82c0-20.88,16.98-37.86,37.86-37.86h104.37c20.88,0,37.86,16.99,37.86,37.86v102.82h103.07c20.88,0,37.86,16.98,37.86,37.86v91.8c0,20.88-16.98,37.86-37.86,37.86Z"/><path class="cls-1" d="M540.02,798.62c-4.39,0-8.53-2.07-11.16-5.59-15.09-20.27-30.21-40.78-45.35-61.51-12.16-16.66-24.17-33.26-36.05-49.81-.17-.24-.34-.49-.49-.74-13.28-19.06-20.29-41.41-20.29-64.68,0-62.49,50.84-113.33,113.32-113.33s113.32,50.84,113.32,113.33c0,23.16-6.95,45.4-20.11,64.41-.2.35-.43.68-.66,1.02-11.88,16.54-23.89,33.15-36.05,49.81-15.13,20.74-30.26,41.24-45.35,61.51-2.62,3.52-6.75,5.59-11.14,5.59ZM470.46,666.12c11.69,16.28,23.52,32.62,35.49,49.02,11.37,15.57,22.72,31.01,34.06,46.32,11.34-15.31,22.69-30.75,34.06-46.32,11.9-16.31,23.67-32.56,35.3-48.76.16-.27.34-.53.52-.79,10.25-14.49,15.66-31.55,15.66-49.31,0-47.18-38.38-85.56-85.55-85.56s-85.55,38.38-85.55,85.56c0,17.77,5.41,34.82,15.66,49.31.13.17.24.35.36.53Z"/><circle class="cls-1" cx="539.98" cy="613.74" r="27.22"/></g></svg>